<svg width="13" height="10" viewBox="0 0 13 10" fill="none" xmlns="http://www.w3.org/2000/svg">
<path fill-rule="evenodd" clip-rule="evenodd" d="M0.898118 4.32125C4.38288 2.89819 6.71226 1.9784 7.88627 1.52719C11.2033 0.242962 11.8928 0.0173544 12.3401 0C12.4332 0 12.6568 0.0173546 12.8059 0.121481C12.9177 0.208253 12.955 0.329734 12.9736 0.416506C12.9923 0.503279 13.0109 0.694177 12.9923 0.850367C12.8059 2.60316 12.0419 6.88971 11.6319 8.85076C11.4642 9.68377 11.1288 9.96144 10.812 9.99615C10.1225 10.0482 9.58206 9.56229 8.9112 9.16314C7.86764 8.52102 7.27131 8.12187 6.24638 7.49711C5.07237 6.76823 5.83641 6.36907 6.50727 5.72696C6.67499 5.55342 9.74978 2.96761 9.80568 2.72464C9.80568 2.68994 9.82432 2.58581 9.74978 2.53375C9.67524 2.48168 9.58206 2.49904 9.50752 2.51639C9.39571 2.53375 7.71855 3.57501 4.45742 5.62283C3.9729 5.93521 3.5443 6.07405 3.15296 6.07405C2.72435 6.07405 1.90441 5.84844 1.28945 5.65754C0.544052 5.43193 -0.0522707 5.31045 0.00363453 4.92866C0.0409047 4.73776 0.339066 4.5295 0.898118 4.32125Z" fill="#FAFAFA" fill-opacity="0.5"/>
</svg>
