<svg width="500" height="500" viewBox="0 0 500 500" fill="none" xmlns="http://www.w3.org/2000/svg">
<rect width="500" height="500" rx="74" fill="#252525"/>
<path d="M333.752 267.847L256.576 98.8323C256.36 98.3588 253.797 93.3526 256.243 89.8317C258.2 87.015 262.025 86.113 263.693 86.0142C282.966 86.2482 322.358 86.7344 325.737 86.807C329.115 86.8797 332.322 92.2265 333.503 94.8909C354.349 141.786 396.319 236.23 397.432 238.843C398.545 241.456 397.155 245.915 396.321 247.818C375.842 299.822 334.486 404.836 332.889 408.852C331.292 412.869 325.489 413.833 322.787 413.813C307.926 413.833 275.525 413.861 264.806 413.813C254.087 413.764 254.21 405.828 255.612 401.866L319.334 244.676L333.752 267.847Z" fill="url(#paint0_linear_967_949)"/>
<path d="M185.808 267.833L108.631 98.8181C108.415 98.3446 105.852 93.3384 108.299 89.8175C110.255 87.0008 114.08 86.0989 115.748 86C135.022 86.234 174.413 86.7202 177.792 86.7929C181.171 86.8655 184.377 92.2124 185.558 94.8767C206.404 141.772 248.375 236.216 249.488 238.829C250.601 241.442 249.21 245.901 248.376 247.803C227.898 299.808 186.541 404.822 184.944 408.838C183.347 412.855 177.544 413.819 174.842 413.799C159.982 413.819 127.581 413.847 116.862 413.799C106.143 413.75 106.266 405.814 107.667 401.852L171.39 244.661L185.808 267.833Z" fill="url(#paint1_linear_967_949)"/>
<path d="M333.752 267.847L256.576 98.8323C256.36 98.3588 253.797 93.3526 256.243 89.8317C258.2 87.015 262.025 86.113 263.693 86.0142C282.966 86.2482 322.358 86.7344 325.737 86.807C329.115 86.8797 332.322 92.2265 333.503 94.8909C354.349 141.786 396.319 236.23 397.432 238.843C398.545 241.456 397.155 245.915 396.321 247.818C375.842 299.822 334.486 404.836 332.889 408.852C331.292 412.869 325.489 413.833 322.787 413.813C307.926 413.833 275.525 413.861 264.806 413.813C254.087 413.764 254.21 405.828 255.612 401.866L319.334 244.676L333.752 267.847Z" fill="url(#paint2_linear_967_949)"/>
<path d="M185.808 267.833L108.631 98.8181C108.415 98.3446 105.852 93.3384 108.299 89.8175C110.255 87.0008 114.08 86.0989 115.748 86C135.022 86.234 174.413 86.7202 177.792 86.7929C181.171 86.8655 184.377 92.2124 185.558 94.8767C206.404 141.772 248.375 236.216 249.488 238.829C250.601 241.442 249.21 245.901 248.376 247.803C227.898 299.808 186.541 404.822 184.944 408.838C183.347 412.855 177.544 413.819 174.842 413.799C159.982 413.819 127.581 413.847 116.862 413.799C106.143 413.75 106.266 405.814 107.667 401.852L171.39 244.661L185.808 267.833Z" fill="url(#paint3_linear_967_949)"/>
<defs>
<linearGradient id="paint0_linear_967_949" x1="324.673" y1="85.8428" x2="324.673" y2="413.84" gradientUnits="userSpaceOnUse">
<stop stop-color="#12C2E9"/>
<stop offset="0.501614" stop-color="#C471ED"/>
<stop offset="1" stop-color="#F64F59"/>
</linearGradient>
<linearGradient id="paint1_linear_967_949" x1="324.673" y1="85.8428" x2="324.673" y2="413.84" gradientUnits="userSpaceOnUse">
<stop stop-color="#12C2E9"/>
<stop offset="0.501614" stop-color="#C471ED"/>
<stop offset="1" stop-color="#F64F59"/>
</linearGradient>
<linearGradient id="paint2_linear_967_949" x1="324.673" y1="85.8428" x2="324.673" y2="413.84" gradientUnits="userSpaceOnUse">
<stop stop-color="#12C2E9"/>
<stop offset="0.501614" stop-color="#C471ED"/>
<stop offset="1" stop-color="#F64F59"/>
</linearGradient>
<linearGradient id="paint3_linear_967_949" x1="324.673" y1="85.8428" x2="324.673" y2="413.84" gradientUnits="userSpaceOnUse">
<stop stop-color="#12C2E9"/>
<stop offset="0.501614" stop-color="#C471ED"/>
<stop offset="1" stop-color="#F64F59"/>
</linearGradient>
</defs>
</svg>
