<svg width="400" height="550" viewBox="0 0 400 550" fill="none" xmlns="http://www.w3.org/2000/svg">
<path fill-rule="evenodd" clip-rule="evenodd" d="M400 0H0V550H400V0ZM58 98C58 96.8955 57.1045 96 56 96C54.8955 96 54 96.8955 54 98V117C54 122.523 58.4771 127 64 127H111C114.314 127 117 129.687 117 133V179C117 179.203 117.03 179.398 117.086 179.582C113.703 185.363 110.907 191.53 108.781 198H97.3938C94.0801 198 91.3938 195.313 91.3938 192V179.079C91.3938 173.556 86.9167 169.079 81.3938 169.079H50.6106C47.2969 169.079 44.6106 166.393 44.6106 163.079V142C44.6106 136.477 40.1335 132 34.6106 132H18C16.8955 132 16 132.896 16 134C16 135.104 16.8955 136 18 136H34.6106C37.9243 136 40.6106 138.687 40.6106 142V163.079C40.6106 168.602 45.0879 173.079 50.6106 173.079H81.3938C84.7075 173.079 87.3938 175.765 87.3938 179.079V192C87.3938 197.523 91.8708 202 97.3938 202H107.562C106.111 207.17 105.082 212.517 104.515 218H69.5737C66.26 218 63.5737 215.313 63.5737 212V208C63.5737 202.477 59.0964 198 53.5737 198H18C16.8955 198 16 198.896 16 200C16 201.104 16.8955 202 18 202H53.5737C56.8875 202 59.5737 204.687 59.5737 208V212C59.5737 217.523 64.0508 222 69.5737 222H104.185C104.062 223.984 104 225.985 104 228C104 230.015 104.062 232.016 104.185 234H69.574C64.0513 234 59.574 238.477 59.574 244V247C59.574 250.313 56.8877 253 53.574 253H18C17.5979 253 17.2236 253.119 16.9102 253.323C16.6204 253.512 16.3826 253.773 16.2227 254.082C16.0803 254.357 16 254.669 16 255C16 256.104 16.8955 257 18 257H53.574C59.0969 257 63.574 252.523 63.574 247V244C63.574 240.687 66.2603 238 69.574 238H104.515C105.082 243.483 106.111 248.83 107.562 254H97.3938C91.8708 254 87.3938 258.477 87.3938 264V276.921C87.3938 280.235 84.7075 282.921 81.3938 282.921H50.6106C45.0879 282.921 40.6106 287.398 40.6106 292.921V314C40.6106 317.313 37.9243 320 34.6106 320H18C16.8955 320 16 320.896 16 322C16 323.104 16.8955 324 18 324H34.6106C40.1335 324 44.6106 319.523 44.6106 314V292.921C44.6106 289.607 47.2969 286.921 50.6106 286.921H81.3938C86.9167 286.921 91.3938 282.444 91.3938 276.921V264C91.3938 260.687 94.0801 258 97.3938 258H108.781C110.889 264.415 113.656 270.532 117 276.271V326.296C117 329.61 114.314 332.296 111 332.296H64C58.4771 332.296 54 336.773 54 342.296V441C54 442.104 54.8955 443 56 443C57.1045 443 58 442.104 58 441V342.296C58 338.983 60.6863 336.296 64 336.296H111C116.523 336.296 121 331.819 121 326.296V282.559C138.325 307.598 167.247 324 200 324C232.753 324 261.675 307.598 279 282.559V326.296C279 331.819 283.477 336.296 289 336.296H336C339.314 336.296 342 338.983 342 342.296V441C342 442.104 342.896 443 344 443C345.104 443 346 442.104 346 441V342.296C346 336.773 341.523 332.296 336 332.296H289C285.686 332.296 283 329.61 283 326.296V276.271C286.344 270.532 289.111 264.415 291.219 258H302.606C305.92 258 308.606 260.687 308.606 264V276.921C308.606 282.444 313.083 286.921 318.606 286.921H349.389C352.703 286.921 355.389 289.607 355.389 292.921V314C355.389 319.523 359.866 324 365.389 324H382C383.104 324 384 323.104 384 322C384 320.896 383.104 320 382 320H365.389C362.076 320 359.389 317.313 359.389 314V292.921C359.389 287.398 354.912 282.921 349.389 282.921H318.606C315.292 282.921 312.606 280.235 312.606 276.921V264C312.606 258.477 308.129 254 302.606 254H292.438C293.889 248.83 294.918 243.483 295.485 238H330.426C333.74 238 336.426 240.687 336.426 244V247C336.426 252.523 340.904 257 346.426 257H382C383.104 257 384 256.104 384 255C384 253.896 383.104 253 382 253H346.426C343.113 253 340.426 250.313 340.426 247V244C340.426 238.477 335.949 234 330.426 234H295.815C295.938 232.016 296 230.015 296 228C296 225.985 295.938 223.984 295.815 222H330.426C335.949 222 340.426 217.523 340.426 212V208C340.426 204.687 343.112 202 346.426 202H382C383.104 202 384 201.104 384 200C384 198.896 383.104 198 382 198H346.426C340.903 198 336.426 202.477 336.426 208V212C336.426 215.313 333.74 218 330.426 218H295.485C294.918 212.517 293.889 207.17 292.438 202H302.606C308.129 202 312.606 197.523 312.606 192V179.079C312.606 175.765 315.292 173.079 318.606 173.079H349.389C354.912 173.079 359.389 168.602 359.389 163.079V142C359.389 138.687 362.075 136 365.389 136H382C383.104 136 384 135.104 384 134C384 132.896 383.104 132 382 132H365.389C359.866 132 355.389 136.477 355.389 142V163.079C355.389 166.393 352.703 169.079 349.389 169.079H318.606C313.083 169.079 308.606 173.556 308.606 179.079V192C308.606 195.313 305.92 198 302.606 198H291.219C289.093 191.53 286.297 185.363 282.914 179.582C282.97 179.398 283 179.203 283 179V133C283 129.687 285.686 127 289 127H336C341.523 127 346 122.523 346 117V98C346 96.8955 345.104 96 344 96C342.896 96 342 96.8955 342 98V117C342 120.314 339.314 123 336 123H289C283.477 123 279 127.477 279 133V173.441C268.008 157.554 252.346 145.145 234 138.195V127.5C234 124.187 236.686 121.5 240 121.5H260C265.523 121.5 270 117.023 270 111.5V98C270 96.8955 269.104 96 268 96C266.896 96 266 96.8955 266 98V111.5C266 114.813 263.314 117.5 260 117.5H240C234.477 117.5 230 121.977 230 127.5V136.781C224.534 134.984 218.851 133.665 213 132.873V98C213 96.8955 212.104 96 211 96C209.896 96 209 96.8955 209 98V132.417C206.037 132.141 203.035 132 200 132C196.965 132 193.963 132.141 191 132.417V98C191 96.8955 190.104 96 189 96C187.896 96 187 96.8955 187 98V132.873C181.149 133.665 175.466 134.984 170 136.781V127.5C170 121.977 165.523 117.5 160 117.5H140C136.686 117.5 134 114.813 134 111.5V98C134 96.8955 133.104 96 132 96C130.896 96 130 96.8955 130 98V111.5C130 117.023 134.477 121.5 140 121.5H160C163.314 121.5 166 124.187 166 127.5V138.195C147.654 145.145 131.992 157.554 121 173.441V133C121 127.477 116.523 123 111 123H64C60.6863 123 58 120.314 58 117V98Z" fill="#020A18"/>
</svg>
