<svg width="12" height="12" viewBox="0 0 12 12" fill="none" xmlns="http://www.w3.org/2000/svg">
<path d="M9.66074 3.17117C9.9781 2.8544 10.148 2.49336 9.8306 2.17658C9.51324 1.85981 9.19032 2.0064 8.87295 2.32318L6.00702 5.19416L3.18252 2.35586C2.86516 2.03908 2.49827 1.86234 2.18091 2.17912C1.86355 2.49589 1.99876 2.80885 2.31612 3.12562L5.19456 5.99562L2.33508 8.8528C2.01772 9.16958 1.86609 9.49788 2.18345 9.81466C2.50081 10.1314 2.81323 10.0099 3.13059 9.6931L6.00702 6.81288L8.87278 9.66702C9.19014 9.98379 9.50433 10.1327 9.82169 9.8159C10.1391 9.49913 9.98672 9.15384 9.66936 8.83707L6.81945 5.99562L9.66074 3.17117Z" fill="#FAFAFA"/>
</svg>
